<?xml version="1.0" encoding="UTF-8" standalone="no"?>
<svg
   xmlns:dc="http://purl.org/dc/elements/1.1/"
   xmlns:cc="http://creativecommons.org/ns#"
   xmlns:rdf="http://www.w3.org/1999/02/22-rdf-syntax-ns#"
   xmlns:svg="http://www.w3.org/2000/svg"
   xmlns="http://www.w3.org/2000/svg"
   xmlns:sodipodi="http://sodipodi.sourceforge.net/DTD/sodipodi-0.dtd"
   xmlns:inkscape="http://www.inkscape.org/namespaces/inkscape"
   width="250"
   height="100"
   viewBox="0 0 66.145832 26.458334"
   version="1.1"
   id="svg413"
   inkscape:version="1.0.1 (3bc2e813f5, 2020-09-07)"
   sodipodi:docname="logo.svg"
   inkscape:export-filename="E:\Materiais para programar\Front End\Projetos\Confeccoes\Logo 100px altura.png"
   inkscape:export-xdpi="96"
   inkscape:export-ydpi="96">
  <style></style>
  <defs
     id="defs407" />
  <sodipodi:namedview
     id="base"
     pagecolor="#ffffff"
     bordercolor="#666666"
     borderopacity="1.0"
     inkscape:pageopacity="0.0"
     inkscape:pageshadow="2"
     inkscape:zoom="3.959798"
     inkscape:cx="63.892472"
     inkscape:cy="100.8121"
     inkscape:document-units="mm"
     inkscape:current-layer="layer1"
     inkscape:document-rotation="0"
     showgrid="false"
     units="px"
     inkscape:pagecheckerboard="true"
     inkscape:window-width="2560"
     inkscape:window-height="1017"
     inkscape:window-x="-8"
     inkscape:window-y="-8"
     inkscape:window-maximized="1"
     inkscape:snap-nodes="false" />
  <metadata
     id="metadata410">
    <rdf:RDF>
      <cc:Work
         rdf:about="">
        <dc:format>image/svg+xml</dc:format>
        <dc:type
           rdf:resource="http://purl.org/dc/dcmitype/StillImage" />
        <dc:title />
      </cc:Work>
    </rdf:RDF>
  </metadata>
  <g
     inkscape:label="Layer 1"
     inkscape:groupmode="layer"
     id="layer1">
    <path
       id="path986-1-4"
       style="display:inline;fill:none;stroke:#ffffff;stroke-width:0.322461;stroke-linecap:butt;stroke-linejoin:miter;stroke-miterlimit:4;stroke-dasharray:none;stroke-opacity:1"
       d="m 12.565662,11.880796 c -0.05955,0.257156 0.26542,0 0,0 z M 7.8031645,12.66077 c 0.2972329,0.354923 1.0304506,1.0455 1.4681271,1.188339 m -0.077751,-1.505965 c -1.6529888,0.07968 -2.0628438,0.615418 -3.0300749,1.822902 -0.6168059,0.770015 -1.0944043,1.567189 -1.4033163,1.548334 -0.8715234,-0.05319 0.2489739,-1.417699 0.2489739,-1.417699 v 0 c 0,0 -0.7305829,0.289612 -1.0117253,0.07444 -0.4095853,-0.313489 0.3971916,-0.983357 0.3971916,-0.983357 v 0 c 0,0 -0.8547695,0.03077 -0.7772763,-0.567183 0.043424,-0.335053 0.347198,-0.362429 0.8226108,-0.383885 C 4.1523235,12.171611 4.1584418,12.00473 4.2149035,11.818422 4.2783365,11.60912 4.7024133,11.42979 4.9961886,11.694282 4.9704476,11.250053 5.0717486,11.064536 5.2908797,10.96055 5.5398303,10.842409 6.2177098,11.00349 6.451271,10.820159 6.7750582,10.566012 6.6395703,9.1191976 6.6047211,8.8430446 6.5719611,8.5834246 4.6067911,7.4236646 4.4861269,7.3050856 4.3070986,7.1291506 4.3444187,6.9310666 4.3444187,6.9310666 4.4817752,6.3756876 4.9629689,6.6218676 5.180371,6.7996776 c 0,0 -0.1256282,-0.650801 0.164048,-0.780925 0.220685,-0.100024 0.3952291,0.138078 0.5591314,0.303032 0.111064,0.111778 0.1923048,0.20775 0.1923048,0.20775 0,0 -0.096985,-0.608727 0.1164105,-0.797285 0.039579,-0.03496 0.1495682,-0.05014 0.1774755,-0.0494 0.140423,0.0038 0.2928176,0.22665 0.3179249,0.266369 l 0.1554531,0.245932 c 0,0 0.02343,-0.663002 0.3978364,-0.701883 0.3744049,-0.03889 0.5758184,0.69109 0.5758184,0.69109 0,0 0.056121,-0.210517 0.1444492,-0.423609 0.091119,-0.21983 0.1595507,-0.439621 0.3498779,-0.439404 0.3553827,3.92e-4 0.4540544,0.736987 0.4540544,0.736987 0.2194487,-0.505442 0.7309051,-0.295503 0.6361331,0.239825 M 11.003446,13.02797 c 0.406775,-0.235871 1.159036,-0.221019 1.545818,0 m -1.647991,-1.159089 c -0.05955,0.257156 0.265421,0 0,0 z M 9.4246316,6.2682386 c -0.08358,0.576015 -0.4767749,1.438096 -0.617436,1.895586 -0.2549779,0.829303 1.5104024,1.8938524 2.0334984,1.9601334 l 0.08708,0.01452 c 1.28183,0.0615 1.846879,-0.134386 2.353996,0.641284 0.07095,0.203004 0.117484,0.439496 0.102121,0.678737 -0.07998,1.053184 -1.05672,1.9414 -1.61504,2.590011 -0.650908,-0.718794 -1.370987,-1.470174 -1.767346,-2.063656 -0.07299,-0.138161 -0.0926,-0.271858 -0.08739,-0.378475 0.05054,-1.033214 1.6391184,-0.315269 1.7728904,-0.289313 0.299085,0.05802 0.438013,-0.143763 0.785317,-0.178614 0.621162,-0.06233 0.775145,0.154016 0.893404,0.139899"
       sodipodi:nodetypes="cccccssccsccscccccssccccccccccccccccccccsccccccccsc" />
    <path
       style="fill:#ff0000;stroke:#ff0000;stroke-width:0.0206586px;stroke-linecap:butt;stroke-linejoin:miter;stroke-opacity:1"
       d="m 9.0079897,14.17969 c 0.090174,-0.285139 0.3489359,-0.54845 0.5666559,-0.695567 0.9436384,-0.487196 1.7618334,0.102987 2.2008704,0.782907 0.169991,-0.294901 0.334473,-0.54059 0.58013,-0.731077 0.07171,-0.05512 0.14693,-0.106662 0.227203,-0.148336 0.128034,-0.06864 0.275003,-0.09143 0.406952,-0.106963 0.389752,-0.02979 0.679681,0.06907 0.91296,0.286599 0.215577,0.20102 0.314338,0.490522 0.323096,0.823135 -0.02175,0.410904 -0.143631,0.676481 -0.356014,0.990862 -0.426751,0.539875 -0.967138,1.007773 -1.200381,1.3174 -0.246705,0.333997 -0.395214,0.676603 -0.434558,0.853667 -0.03934,0.177064 0.0052,0.216009 -0.175907,0.04648 -0.181118,-0.169522 -0.37161,-0.294156 -0.556607,-0.44811 C 10.640133,16.433126 9.5601106,15.873396 9.0702052,15.054062 8.9512367,14.787182 8.919884,14.458278 9.0079892,14.179681 Z"
       id="path389-7"
       sodipodi:nodetypes="acccccaccczzsca" />
    <path
       id="path3162"
       style="display:inline;fill:none;stroke:#000000;stroke-width:1.67171;stroke-linecap:round;stroke-linejoin:round;stroke-miterlimit:4;stroke-dasharray:none;stroke-opacity:1"
       d="m 61.276572,17.062282 c -0.724282,1.728139 -2.138681,4.802998 -1.744585,4.909063 0.856136,0.230411 4.285575,-2.906656 5.266167,-3.644636 M 63.829773,14.24665 c -1.676592,-0.816259 -3.232802,-0.720185 -4.555865,-0.222931 -1.637112,0.615275 -2.156833,1.011823 -3.551629,2.738966 -0.307191,0.380387 -0.513882,0.771611 -0.653279,1.155424 -0.306634,0.844273 -0.287659,1.652678 -0.296445,2.230965 -0.03352,2.206014 2.167308,2.399701 3.499885,0.793375 1.378745,-1.661971 3.024703,-3.801395 4.280646,-5.751582 M 46.780719,14.765309 c -0.885703,1.123918 -3.452377,7.11939 -3.09863,7.181344 0.628782,0.110123 2.115214,-2.256803 3.111923,-3.298095 1.589961,-1.6611 4.081682,-4.561142 6.037658,-5.213132 0.772995,-0.257664 -3.910552,8.124844 -3.337991,8.697413 0.05382,0.05386 1.823884,-0.896271 3.361552,-2.280508 2.79498,-2.516115 1.16917,-1.013273 2.251056,-2.062982 M 39.707054,18.0377 c -0.729991,1.105054 -1.435539,3.701938 -1.050037,3.84764 1.0063,0.380343 4.877543,-3.091005 6.750357,-5.23625 0.921611,-1.055665 2.102017,-2.880839 2.104771,-3.639222 m -4.627967,1.143691 c -2.284951,-0.961692 -4.382984,-0.274577 -5.69423,0.494599 -2.005345,1.176317 -3.542391,3.717482 -3.39391,5.371818 0.183179,2.041068 2.157318,2.493206 3.675519,0.929271 0.770844,-0.794067 1.438666,-1.786089 2.057104,-2.658869 0.798419,-1.126758 1.421435,-2.050371 2.025624,-3.086209 m -19.15592,3.469649 c 0.542196,-0.293093 5.74213,-5.206678 4.121281,-5.206678 -0.428541,0 -3.787773,8.131173 -3.354516,8.564426 0.380069,0.380074 5.967541,-4.906423 7.466136,-6.815992 0.524127,-0.667873 1.454563,-1.793012 1.523848,-1.723727 0.448905,0.857894 -4.105678,7.548728 -3.352489,8.352745 0.32051,0.342144 3.189356,-2.496652 5.954902,-4.80128 M 20.733725,14.837308 c 0.06622,-0.09843 0.141578,-0.21063 0.224421,-0.335046 1.492806,-2.241833 5.410902,-8.4493625 1.748138,-9.5339927 -0.254919,-0.075488 -1.203971,0.1379436 -1.605539,0.594274 -0.54104,0.4670184 -1.550762,1.8743891 -2.41144,3.8880956 -0.917826,2.1474111 -1.629729,4.9460311 -2.737641,7.3005521 -1.530985,3.25361 -3.483982,5.451651 -5.290516,5.282427 -0.471236,-0.04413 -0.8739444,0.112439 -1.3165254,-0.352936 -1.095716,-1.152142 4.2134604,-0.0035 4.4528064,0.05642 0.74546,0.186366 1.509317,0.255507 2.335267,0.2598 2.018014,0.01041 4.182105,-0.42261 6.031956,-0.42261"
       sodipodi:nodetypes="csccsssssccsssssccsaccssssccssscsccsscssssssc" />
    <path
       id="path3765"
       style="display:inline;fill:none;stroke:#ffffff;stroke-width:0.739414;stroke-linecap:round;stroke-linejoin:round;stroke-miterlimit:4;stroke-dasharray:none;stroke-opacity:1;paint-order:fill markers stroke"
       d="m 58.272457,8.9196059 c 0.519614,0.33016 0.845603,-0.01165 1.240136,-0.307561 m -3.621288,-0.04771 c 0.309598,-0.273475 0.841075,-0.572246 1.184862,-1.0155937 0.231518,-0.298556 0.962476,-1.666229 0.871856,-1.7453502 -0.104132,-0.09089 -0.250657,0.1311847 -0.215283,0.4256075 0.22793,0.3480901 0.94465,1.8550564 0.353242,2.5649064 -0.182056,0.218504 -0.833046,0.311675 -1.185907,-0.003 m -3.068634,-0.403969 c 0.203339,-0.212782 0.351253,-0.21806 0.75156,-0.7296171 0.400318,-0.5115569 0.492732,-1.3048219 0.211726,-1.5718339 -0.338633,-0.3217835 -2.145414,1.1599564 -1.273138,2.441177 0.544567,0.791128 1.625207,0.643868 2.369716,0.0376 M 50.681674,4.9344962 c 0.202183,-0.4763117 0.761551,-0.5318221 1.044768,-0.3711291 0.298745,0.1695082 0.535233,0.363962 1.02405,-0.3435528 m -1.191233,1.9158492 c 0,0 -0.539182,0.092573 -0.812593,0.8387004 -0.304105,0.829899 -0.316002,1.358892 -0.156464,1.640651 0.135298,0.238942 0.393878,0.30008 0.702096,0.216147 0.74144,-0.201919 1.424697,-1.8219264 0.980264,-2.3806162 -0.342926,-0.4310713 -0.69753,-0.2841684 -0.647484,-0.3148822 0.03088,-0.018926 -0.134298,0.037851 -0.134298,0.037851 m -2.990752,2.7105334 c 0.558969,0.976151 0.747173,2.0427971 -0.865135,1.4669691 M 49.317677,6.597349 C 48.878104,6.0644868 48.093056,6.2734928 47.772413,6.560691 c -0.396339,0.3550374 -0.582765,1.0711831 -0.398336,1.5701259 0.237877,0.643538 1.055257,0.975647 2.442462,0.228692 M 46.592894,6.569586 c -0.465145,-0.6190855 -1.315505,-0.4220619 -1.639913,0.091308 -0.36074,0.5708269 -0.473558,1.4447669 0.304204,2.0669659 0.251174,0.200938 0.52065,0.209136 0.783419,0.187147 0.487118,-0.04079 0.951169,-0.314881 1.232772,-0.570887 m -7.907654,0.403691 c 0.600569,0.149945 1.471596,0.196695 2.006326,-0.07067 1.760779,-0.88039 2.104635,-2.1681343 1.706818,-2.5094564 -0.198697,-0.1704685 -0.59911,-0.081602 -0.974273,0.4186159 -0.999019,1.3320135 -0.265208,2.1954505 0.792319,2.2349935 0.22957,0.0086 0.818979,0.002 1.134,-0.183482 0.271976,-0.160265 0.514186,-0.281116 0.604478,-0.452497 M 36.482139,6.269808 c 1.773096,-0.3692216 -0.854223,2.3191209 0.250956,2.5954099 1.805263,0.451311 5.144588,-3.8388504 4.319225,-4.6642181 -1.468602,-1.4686027 -3.003497,6.4009432 -2.781597,6.5118972 1.004358,0.50218 1.519531,-2.0758791 0.581141,-2.5811611 M 35.029613,7.726906 C 35.444005,7.2686823 36.16159,6.3360797 36.482139,6.269808 M 34.450952,9.2225509 C 34.847206,8.2291399 35.318647,6.88969 35.391324,5.7996217 m -2.388541,0.4137651 c -1.442426,-0.1785374 -2.167646,3.5757931 -0.65825,2.8210951 1.01632,-0.508155 1.677738,-2.4569941 0.65825,-2.8210951 z m -2.971554,-0.056423 c 0.521727,-0.1657831 1.089566,-0.5228373 1.2789,-1.0908254 0.154652,-0.4639755 -0.01096,-0.689835 -0.176441,-0.8302242 -0.3303,-0.2810553 -0.80329,-0.1393269 -1.58138,0.4664309 -0.820104,0.7156578 -1.442132,1.6149275 -1.851907,2.6702888 -0.539024,1.724976 -0.234954,2.8047011 0.31238,3.0049961 0.526239,0.192577 1.079347,-0.5012981 1.999643,-1.3243441"
       sodipodi:nodetypes="cccsccscczscccsccsssssccccssccsssccsssssccsssccccccsccssccsc" />
    <path
       style="fill:#ffffff;fill-opacity:1;stroke:#ffffff;stroke-width:0.75590552;stroke-linecap:round;stroke-linejoin:round;stroke-opacity:1;stroke-miterlimit:4;stroke-dasharray:none"
       d="m 186.19322,86.509829 c -1.07708,-0.303066 -2.12403,-1.712133 -2.2746,-3.061333 -0.24934,-2.234273 1.32637,-6.465535 6.73057,-18.073523 1.83154,-3.934075 3.29463,-7.259194 3.25131,-7.389155 -0.14416,-0.432479 -5.82219,4.953838 -10.81003,10.254662 -2.70847,2.878427 -6.38534,7.066179 -8.17083,9.306113 -4.99512,6.266492 -6.82457,7.965773 -9.00439,8.363702 -1.66642,0.30421 -3.34665,-0.767503 -3.79111,-2.418108 -0.31728,-1.178297 0.007,-2.804474 1.19633,-5.994932 0.48258,-1.294801 0.82443,-2.407163 0.75968,-2.471916 -0.0648,-0.06475 -1.18352,0.807667 -2.48613,1.938712 -4.85046,4.211581 -9.54667,7.394938 -12.32006,8.351239 -2.84601,0.981341 -5.09703,0.36408 -6.08042,-1.667332 -0.30483,-0.629679 -0.58586,-1.144869 -0.62453,-1.144869 -0.0387,0 -0.79707,0.487358 -1.68536,1.08302 -3.28692,2.204115 -7.22089,2.728091 -10.19484,1.357869 -3.43384,-1.582108 -5.93465,-5.503263 -5.93465,-9.305255 0,-0.669271 -0.0852,-1.214812 -0.1894,-1.212311 -0.10417,0.0025 -2.00768,1.60269 -4.23001,3.555981 -6.84776,6.018742 -9.23029,7.640299 -11.18439,7.612119 -1.34149,-0.01935 -2.71777,-0.989819 -3.26663,-2.303441 -0.86466,-2.069406 -0.10858,-4.944846 2.98973,-11.37032 1.09865,-2.27844 1.9401,-4.200055 1.8699,-4.270256 -0.0702,-0.0702 -2.20244,1.908191 -4.7383,4.396432 -7.189445,7.054405 -13.799126,12.664022 -16.227429,13.772164 -1.831687,0.835879 -4.172743,0.384421 -4.574756,-0.882211 -0.145914,-0.459733 -0.335749,-0.477795 -3.345807,-0.318297 -1.755112,0.093 -6.032169,0.454056 -9.504568,0.802349 -10.280929,1.031209 -15.123918,0.901488 -22.345366,-0.598536 l -2.142316,-0.444994 -2.024563,0.880224 c -1.863966,0.8104 -2.266887,0.888621 -5.079371,0.986075 -3.780419,0.130992 -5.309146,-0.243593 -6.973673,-1.708769 -1.463049,-1.287825 -2.062768,-2.5233 -1.904868,-3.92419 0.241697,-2.144326 1.804202,-3.300249 4.836788,-3.578205 1.395264,-0.127883 7.747297,0.451414 9.207378,0.839704 0.503047,0.133777 0.918622,-0.174231 2.674541,-1.982265 5.397989,-5.5582 9.476171,-13.622968 14.917439,-29.499841 3.8364,-11.194084 6.450114,-17.052292 9.923877,-22.24272 3.978286,-5.944276 7.361118,-8.350471 11.739793,-8.350471 2.384763,0 5.609282,1.716848 7.146875,3.80525 4.862172,6.603939 1.654135,18.081585 -10.075691,36.048596 -0.922231,1.412615 -1.933083,2.74791 -2.246337,2.967323 -0.898096,0.629052 -2.5551,0.513501 -3.451393,-0.240682 -0.862647,-0.725868 -1.418534,-2.121232 -1.164241,-2.922432 0.09418,-0.296735 0.991869,-1.804279 1.994867,-3.350095 6.412082,-9.8823 10.340618,-18.268871 10.950758,-23.377476 0.252819,-2.116817 0.0098,-4.327765 -0.573506,-5.218028 -0.945703,-1.443323 -2.822349,-1.975733 -4.496828,-1.275763 -1.832745,0.76613 -5.115665,5.120401 -7.751906,10.281668 -2.019598,3.953993 -3.279667,7.122181 -6.321908,15.895135 -1.420886,4.097432 -3.206679,9.040866 -3.968427,10.985409 -2.61975,6.687536 -7.107439,14.714849 -10.344875,18.504311 -0.631645,0.739348 -1.090164,1.402548 -1.018933,1.473779 0.328976,0.328977 3.723195,0.594063 7.665735,0.59869 2.850398,0.0033 6.511618,-0.216284 10.732871,-0.643849 3.523705,-0.356909 7.855252,-0.669425 9.625663,-0.69448 l 3.218929,-0.04555 0.910996,-2.730695 c 0.501048,-1.50188 0.852955,-2.788736 0.782015,-2.859674 -0.07094,-0.07094 -0.494273,0.05992 -0.940743,0.290795 -1.565259,0.809428 -3.52667,-0.106859 -4.063376,-1.898233 -0.436818,-1.457963 0.0028,-2.221639 2.519272,-4.376897 1.200463,-1.028129 3.546365,-3.229317 5.213117,-4.891533 l 3.030458,-3.022207 1.580936,-3.51403 c 2.221614,-4.938101 3.293964,-6.559199 4.752435,-7.184372 1.490468,-0.638889 2.268818,-0.621259 3.515618,0.07963 1.93437,1.087414 2.42458,3.449878 1.2429,5.989821 -0.69257,1.488619 -2.46956,3.940029 -4.731146,6.526752 -1.118898,1.279752 -1.665953,2.245546 -2.717868,4.798224 -1.868795,4.534994 -4.049305,10.449859 -3.905389,10.593778 0.304579,0.304579 12.676233,-11.394359 16.910273,-15.990763 1.53872,-1.670411 4.00538,-4.511465 5.48146,-6.313453 4.56717,-5.575575 5.80925,-6.542187 7.63315,-5.940247 1.09556,0.361569 1.80965,1.151334 2.1803,2.411368 0.61155,2.078989 -0.67957,5.51814 -5.54624,14.773481 -3.7377,7.108304 -5.11038,9.879741 -4.96526,10.024864 0.0678,0.06777 2.8875,-2.304246 6.26608,-5.271145 3.37857,-2.966896 6.68944,-5.846836 7.35748,-6.399864 0.66804,-0.553028 1.66786,-1.604473 2.22182,-2.336546 3.39243,-4.48313 6.77598,-7.379811 11.21077,-9.597629 5.14875,-2.574863 10.50533,-3.534453 15.70223,-2.812933 2.42072,0.336085 6.35049,1.566074 7.24064,2.266264 0.9008,0.708572 1.34638,2.243266 0.93774,3.229827 -0.54702,1.320612 -1.42552,1.931416 -2.7494,1.911605 -0.64938,-0.0097 -1.43602,-0.107483 -1.74808,-0.217251 -0.5446,-0.191563 -0.56144,-0.155289 -0.41929,0.902945 0.13751,1.023734 0.0329,1.292028 -1.46429,3.754176 -0.88682,1.458408 -2.76046,4.356283 -4.16365,6.439723 -1.4032,2.083439 -2.88537,4.583567 -3.29371,5.555839 -0.86611,2.062246 -1.89768,5.366907 -1.78284,5.71141 0.12039,0.361164 3.80673,-2.253022 7.44116,-5.276931 4.04741,-3.367521 11.56586,-10.846437 13.7651,-13.692732 3.29426,-4.263487 6.01457,-8.970682 6.01695,-10.411652 0.002,-0.888316 0.91541,-2.178697 1.86326,-2.6307 1.1322,-0.539904 2.39145,-0.293727 3.28884,0.64295 0.91189,0.951808 1.08524,2.309787 0.53855,4.21896 -0.4478,1.563837 -2.43917,5.505725 -3.72697,7.377477 -0.87938,1.278141 -5.50016,10.663809 -5.50016,11.171863 0,0.188015 1.15876,-0.90324 2.57503,-2.42501 11.52027,-12.37847 18.14786,-17.969397 23.05023,-19.444793 2.01215,-0.605571 3.94034,0.527118 4.31722,2.536097 0.31719,1.690781 -0.39209,3.475728 -7.52628,18.940065 -3.33279,7.224295 -3.53905,7.702413 -3.32282,7.702413 0.38906,0 4.50187,-3.359495 8.65123,-7.066646 3.65311,-3.263793 4.86967,-4.511177 5.55027,-5.690884 1.81068,-3.138529 6.41338,-8.385152 9.13152,-10.409056 2.62359,-1.953496 7.84826,-4.225216 11.49049,-4.996149 2.5225,-0.533924 6.95914,-0.553546 9.34391,-0.04133 2.95111,0.633865 6.22309,1.937417 7.1342,2.842256 0.69394,0.689159 0.82075,0.998485 0.82075,2.002026 0,1.013123 -0.12573,1.312661 -0.85863,2.045559 -0.72108,0.721082 -1.22333,0.932962 -2.17183,0.916211 -0.0694,-0.0013 -0.48019,-0.07715 -0.91276,-0.168716 -0.77509,-0.164074 -0.78833,-0.150181 -0.91334,0.958946 -0.10192,0.904245 -0.61553,1.837323 -2.61329,4.747631 -2.18405,3.181675 -2.77169,4.290188 -4.8319,9.1147 -2.29032,5.363387 -2.52087,5.997985 -2.179,5.997985 0.3443,0 3.60914,-2.566782 11.01814,-8.662341 2.77146,-2.280152 3.05432,-2.449337 4.09495,-2.449337 2.24832,0 3.75414,2.272613 2.74101,4.136767 -0.68695,1.263968 -11.19113,9.844181 -15.67664,12.805269 -4.06305,2.682203 -6.54155,3.351201 -8.34401,2.252226 -0.94499,-0.576168 -1.82627,-1.885874 -1.82765,-2.716149 -0.001,-0.757324 -0.14808,-0.722201 -1.28869,0.308266 -2.25301,2.03546 -6.2375,3.351446 -8.85669,2.925162 -3.14653,-0.512109 -5.04259,-1.89566 -6.42153,-4.685754 -0.75471,-1.527035 -0.95579,-2.261121 -1.08243,-3.951588 l -0.15554,-2.076154 -1.76777,1.583535 c -4.64132,4.157616 -12.19066,9.191681 -14.52094,9.682883 -0.34724,0.07319 -0.99656,0.03032 -1.44294,-0.09528 z m 29.65739,-7.449461 c 1.83376,-1.13373 10.06231,-11.516356 15.8296,-19.973492 1.34723,-1.975583 2.55719,-3.658512 2.68878,-3.739842 0.1316,-0.08133 0.23926,-0.267971 0.23926,-0.414758 0,-0.179646 -1.09379,-0.230601 -3.34613,-0.155882 -2.9342,0.09734 -3.639,0.210932 -5.72514,0.922739 -5.05286,1.72407 -7.45633,3.407974 -11.16271,7.820737 -3.45475,4.113175 -4.38712,6.795468 -4.22149,12.144648 0.0722,2.332025 0.16845,2.873747 0.61731,3.474826 0.92987,1.245192 2.99054,1.21316 5.08052,-0.07898 z M 136.9978,78.942735 c 2.28897,-1.143166 5.71005,-5.293755 12.08651,-14.663831 1.44955,-2.130096 3.34179,-5.009324 4.20495,-6.398284 0.86317,-1.388959 1.67124,-2.563262 1.79571,-2.609559 0.12447,-0.0463 0.22631,-0.204672 0.22631,-0.351943 0,-0.422716 -4.8798,-0.05621 -7.19734,0.540563 -2.86265,0.737144 -6.70463,2.720205 -8.9651,4.62738 -3.56045,3.003979 -6.98481,8.082319 -7.96317,11.809426 -1.52178,5.797293 1.3476,9.275943 5.81213,7.046248 z"
       id="path855"
       transform="scale(0.26458333)" />
  </g>
</svg>
